<?xml version="1.0" encoding="utf-8"?>
<!-- Generator: Adobe Illustrator 16.0.0, SVG Export Plug-In . SVG Version: 6.00 Build 0)  -->
<!DOCTYPE svg PUBLIC "-//W3C//DTD SVG 1.1//EN" "http://www.w3.org/Graphics/SVG/1.1/DTD/svg11.dtd">
<svg version="1.1" id="Layer_1" xmlns="http://www.w3.org/2000/svg" xmlns:xlink="http://www.w3.org/1999/xlink" x="0px" y="0px"
	 width="95.75px" height="54.25px" viewBox="0 0 95.75 54.25" enable-background="new 0 0 95.75 54.25" xml:space="preserve">
<g>
	<path fill="#E77B77" d="M9.004,43.615l0.451-0.001c0.569,0.06,60.082-0.032,60.665-0.033c9.192-0.02,16.63-7.485,16.61-16.678
		c-0.02-9.19-7.487-16.627-16.679-16.608c-0.585,0.001-61.116,0.217-61.116,0.217L9.004,43.615z"/>
	<path fill="#E77B77" d="M26.603,3.378c-0.001-0.434-0.354-0.786-0.787-0.784c-0.435,0.001-0.785,0.354-0.785,0.787
		c0.002,1.012-0.819,1.836-1.831,1.838c-1.01,0.002-1.835-0.82-1.837-1.829c-0.002-0.435-0.354-0.788-0.788-0.785
		c-0.434,0-0.787,0.353-0.785,0.787C19.794,5,20.917,6.345,22.418,6.698l0.007,4.024c0.002,0.435,0.355,0.787,0.788,0.786
		c0.434,0,0.787-0.353,0.785-0.789L23.99,6.695C25.489,6.336,26.606,4.986,26.603,3.378z"/>
	<path fill="#E77B77" d="M16.021,3.401c-0.001-0.437-0.354-0.787-0.788-0.786c-0.435,0.002-0.785,0.355-0.786,0.789
		c0.003,1.011-0.817,1.835-1.83,1.837c-1.011,0.003-1.835-0.82-1.836-1.83c-0.001-0.435-0.355-0.787-0.789-0.785
		c-0.434,0-0.785,0.355-0.784,0.788c0.002,1.607,1.125,2.953,2.627,3.305l0.007,4.025c0.002,0.435,0.354,0.787,0.788,0.785
		c0.435,0,0.786-0.355,0.786-0.788l-0.008-4.025C14.907,6.358,16.025,5.008,16.021,3.401z"/>
	<path fill="#E77B77" d="M37.185,3.356c0-0.433-0.354-0.785-0.788-0.785c-0.434,0.001-0.785,0.355-0.784,0.789
		c0.002,1.01-0.819,1.835-1.83,1.837c-1.012,0.002-1.837-0.818-1.839-1.829c-0.001-0.435-0.353-0.787-0.789-0.785
		c-0.433,0-0.784,0.354-0.783,0.787C30.375,4.978,31.498,6.323,33,6.677l0.008,4.023c0.001,0.435,0.355,0.786,0.789,0.785
		c0.434,0,0.783-0.354,0.784-0.788l-0.009-4.024C36.072,6.314,37.189,4.964,37.185,3.356z"/>
	<path fill="#E77B77" d="M47.767,3.334c0-0.433-0.354-0.786-0.787-0.786c-0.433,0.002-0.786,0.355-0.784,0.789
		c0.002,1.011-0.819,1.834-1.832,1.837c-1.009,0.002-1.835-0.82-1.837-1.829c0-0.435-0.354-0.788-0.788-0.786
		c-0.434,0.001-0.785,0.354-0.785,0.788c0.005,1.607,1.128,2.953,2.628,3.306l0.008,4.024c0,0.435,0.354,0.786,0.788,0.786
		c0.434-0.002,0.785-0.354,0.785-0.79l-0.007-4.024C46.653,6.293,47.77,4.942,47.767,3.334z"/>
	<path fill="#E77B77" d="M2.482,29.642c-0.435,0.001-0.785,0.354-0.785,0.787c0.001,0.435,0.353,0.786,0.787,0.785
		c1.01-0.002,1.835,0.819,1.838,1.829c0.002,1.011-0.82,1.837-1.83,1.84c-0.436-0.001-0.785,0.353-0.785,0.786
		c0,0.436,0.353,0.785,0.787,0.784c1.606-0.002,2.953-1.124,3.305-2.627l4.025-0.008c0.433-0.003,0.787-0.354,0.787-0.788
		c-0.002-0.434-0.356-0.785-0.789-0.784l-4.026,0.007C5.439,30.755,4.088,29.637,2.482,29.642z"/>
	<path fill="#E77B77" d="M2.281,41.794c-0.404,0.159-0.601,0.616-0.443,1.02c0.16,0.405,0.617,0.602,1.021,0.443
		c0.939-0.37,2.007,0.094,2.377,1.035c0.37,0.94-0.094,2.01-1.035,2.378c-0.404,0.16-0.603,0.615-0.444,1.02
		c0.16,0.402,0.616,0.604,1.02,0.445c1.496-0.59,2.339-2.126,2.12-3.651l3.747-1.475c0.402-0.158,0.603-0.614,0.443-1.02
		c-0.16-0.405-0.615-0.602-1.02-0.443L6.321,43.02C5.442,41.753,3.778,41.205,2.281,41.794z"/>
	<path fill="#E77B77" d="M2.46,19.06c-0.435,0-0.786,0.353-0.784,0.787c0,0.435,0.352,0.787,0.788,0.786
		c1.01-0.003,1.835,0.817,1.838,1.829c0.001,1.01-0.82,1.835-1.831,1.837c-0.436,0-0.787,0.353-0.785,0.788
		c0,0.434,0.354,0.785,0.787,0.785c1.607-0.003,2.953-1.126,3.305-2.628l4.026-0.008c0.433-0.001,0.787-0.354,0.785-0.787
		c-0.001-0.435-0.354-0.785-0.788-0.785l-4.026,0.008C5.417,20.173,4.067,19.056,2.46,19.06z"/>
	<path fill="#E77B77" d="M5.095,5.751c-0.396-0.176-0.86,0.002-1.035,0.4c-0.177,0.396,0.001,0.861,0.4,1.038
		c0.923,0.408,1.342,1.494,0.933,2.419c-0.409,0.923-1.495,1.344-2.418,0.934c-0.398-0.177-0.861,0.002-1.036,0.399
		c-0.176,0.398,0.001,0.862,0.398,1.037c1.47,0.651,3.157,0.173,4.09-1.053l3.68,1.629c0.396,0.177,0.862-0.003,1.037-0.4
		c0.177-0.397-0.004-0.861-0.4-1.039L7.062,9.488C7.344,7.971,6.566,6.401,5.095,5.751z"/>
	<path fill="#E77B77" d="M58.35,3.313c-0.001-0.434-0.354-0.787-0.789-0.784c-0.434,0-0.785,0.354-0.784,0.788
		c0.002,1.009-0.819,1.835-1.83,1.837c-1.012,0.001-1.836-0.819-1.839-1.83c-0.002-0.435-0.353-0.786-0.786-0.785
		c-0.435,0-0.786,0.354-0.785,0.788c0.004,1.608,1.126,2.954,2.626,3.306l0.01,4.024c0.001,0.436,0.354,0.788,0.788,0.785
		c0.434,0,0.784-0.354,0.784-0.787l-0.01-4.024C57.234,6.27,58.352,4.92,58.35,3.313z"/>
	<path fill="#E77B77" d="M68.929,3.48c0.021-0.434-0.312-0.803-0.744-0.826c-0.435-0.022-0.804,0.309-0.827,0.744
		c-0.052,1.01-0.916,1.789-1.927,1.735c-1.01-0.052-1.789-0.917-1.737-1.927c0.024-0.432-0.309-0.803-0.742-0.827
		c-0.435-0.021-0.804,0.312-0.826,0.747c-0.085,1.604,0.966,3.007,2.444,3.442l-0.209,4.019c-0.022,0.435,0.31,0.805,0.745,0.826
		c0.431,0.023,0.8-0.31,0.824-0.744l0.21-4.019C67.655,6.374,68.846,5.084,68.929,3.48z"/>
	<path fill="#E77B77" d="M79.443,5.189c0.113-0.419-0.136-0.85-0.554-0.962c-0.421-0.113-0.852,0.135-0.966,0.554
		c-0.262,0.977-1.271,1.557-2.248,1.294c-0.976-0.264-1.557-1.273-1.293-2.249c0.112-0.42-0.136-0.85-0.555-0.962
		C73.409,2.75,72.979,3,72.864,3.419c-0.417,1.552,0.314,3.142,1.67,3.879l-1.046,3.885c-0.112,0.419,0.136,0.849,0.556,0.962
		c0.418,0.113,0.851-0.136,0.962-0.554l1.047-3.888C77.593,7.753,79.024,6.74,79.443,5.189z"/>
	<path fill="#E77B77" d="M87.481,10.725c0.26-0.347,0.187-0.839-0.159-1.099c-0.349-0.261-0.842-0.188-1.102,0.16
		c-0.605,0.81-1.756,0.978-2.565,0.372c-0.811-0.605-0.979-1.757-0.374-2.567c0.26-0.348,0.189-0.84-0.157-1.1
		c-0.351-0.259-0.842-0.188-1.103,0.16c-0.961,1.288-0.869,3.039,0.121,4.22l-2.407,3.227c-0.261,0.348-0.188,0.843,0.158,1.101
		c0.349,0.259,0.841,0.186,1.101-0.161l2.406-3.226C84.817,12.424,86.52,12.014,87.481,10.725z"/>
	<path fill="#E77B77" d="M92.609,19.04c0.377-0.216,0.508-0.696,0.293-1.071c-0.217-0.378-0.696-0.509-1.073-0.293
		c-0.878,0.505-2.001,0.197-2.504-0.679c-0.502-0.877-0.197-2.001,0.682-2.503c0.376-0.215,0.507-0.695,0.291-1.074
		c-0.217-0.375-0.697-0.505-1.074-0.29c-1.395,0.798-2.006,2.44-1.568,3.92l-3.494,2c-0.378,0.216-0.507,0.696-0.29,1.072
		c0.214,0.377,0.695,0.508,1.072,0.292l3.49-2C89.49,19.537,91.216,19.841,92.609,19.04z"/>
	<path fill="#E77B77" d="M27.106,50.048c0.002,0.435-0.35,0.787-0.784,0.789c-0.435,0-0.787-0.351-0.789-0.786
		c-0.001-1.01-0.826-1.83-1.836-1.828c-1.012,0.001-1.834,0.826-1.832,1.837c0,0.434-0.35,0.786-0.784,0.788
		c-0.434,0.001-0.787-0.352-0.786-0.785c-0.005-1.607,1.112-2.958,2.612-3.316l-0.009-4.025c0-0.434,0.352-0.787,0.787-0.787
		c0.432-0.002,0.786,0.351,0.786,0.783l0.008,4.026C25.979,47.095,27.104,48.441,27.106,50.048z"/>
	<path fill="#E77B77" d="M16.525,50.069c0.001,0.436-0.35,0.787-0.785,0.788c-0.434,0.001-0.787-0.35-0.788-0.784
		c-0.002-1.011-0.827-1.832-1.838-1.83c-1.01,0.003-1.831,0.827-1.83,1.838c0.001,0.435-0.35,0.786-0.785,0.788
		c-0.433,0.001-0.786-0.351-0.787-0.786c-0.003-1.606,1.115-2.957,2.613-3.315l-0.008-4.026c-0.001-0.433,0.351-0.784,0.784-0.786
		c0.433-0.001,0.787,0.351,0.788,0.784l0.008,4.026C15.397,47.118,16.521,48.463,16.525,50.069z"/>
	<path fill="#E77B77" d="M37.688,50.025c0.001,0.436-0.35,0.788-0.785,0.79c-0.434,0-0.786-0.353-0.788-0.787
		c-0.001-1.01-0.826-1.83-1.836-1.827c-1.012,0-1.833,0.826-1.83,1.836c0,0.435-0.352,0.787-0.786,0.787
		c-0.435,0.002-0.787-0.351-0.787-0.784c-0.003-1.605,1.112-2.957,2.612-3.315l-0.008-4.025c-0.001-0.435,0.352-0.788,0.786-0.788
		c0.433-0.002,0.785,0.351,0.787,0.784l0.008,4.025C36.562,47.072,37.685,48.42,37.688,50.025z"/>
	<path fill="#E77B77" d="M48.271,50.003c0,0.435-0.35,0.789-0.784,0.791c-0.435-0.001-0.788-0.352-0.787-0.786
		c-0.004-1.012-0.826-1.832-1.84-1.829c-1.008,0.002-1.83,0.825-1.829,1.835c0.001,0.435-0.351,0.79-0.785,0.791
		c-0.434,0.001-0.787-0.353-0.788-0.786c-0.003-1.606,1.114-2.957,2.614-3.315l-0.008-4.026c-0.002-0.432,0.351-0.786,0.783-0.788
		c0.435,0,0.788,0.352,0.79,0.784l0.009,4.026C47.145,47.052,48.267,48.398,48.271,50.003z"/>
	<path fill="#E77B77" d="M58.853,49.982c0.001,0.435-0.352,0.787-0.785,0.789c-0.435,0-0.787-0.352-0.788-0.785
		c0-1.013-0.827-1.832-1.838-1.831c-1.012,0.003-1.833,0.826-1.83,1.838c0.002,0.435-0.351,0.787-0.784,0.789
		c-0.434,0.001-0.787-0.352-0.787-0.785c-0.004-1.606,1.112-2.957,2.613-3.316l-0.009-4.024c-0.002-0.435,0.35-0.788,0.783-0.788
		c0.434-0.002,0.788,0.351,0.791,0.784l0.008,4.024C57.726,47.029,58.85,48.376,58.853,49.982z"/>
	<path fill="#E77B77" d="M69.43,49.772c0.024,0.433-0.307,0.803-0.74,0.828c-0.433,0.023-0.805-0.309-0.83-0.74
		c-0.055-1.011-0.923-1.785-1.932-1.729c-1.013,0.058-1.786,0.927-1.729,1.937c0.024,0.431-0.308,0.803-0.741,0.828
		c-0.433,0.023-0.803-0.309-0.828-0.741c-0.09-1.605,0.953-3.013,2.43-3.454l-0.225-4.017c-0.026-0.437,0.306-0.807,0.74-0.829
		c0.432-0.025,0.803,0.306,0.828,0.739l0.227,4.02C68.146,46.883,69.341,48.168,69.43,49.772z"/>
	<path fill="#E77B77" d="M79.938,48.02c0.115,0.418-0.131,0.851-0.55,0.964c-0.42,0.114-0.851-0.13-0.966-0.55
		c-0.266-0.975-1.277-1.552-2.252-1.285c-0.976,0.268-1.555,1.278-1.286,2.253c0.114,0.42-0.133,0.853-0.551,0.967
		c-0.418,0.113-0.851-0.133-0.966-0.552c-0.424-1.551,0.301-3.144,1.654-3.886l-1.063-3.881c-0.115-0.418,0.132-0.851,0.553-0.967
		c0.418-0.113,0.851,0.133,0.964,0.553l1.062,3.881C78.076,45.464,79.515,46.471,79.938,48.02z"/>
	<path fill="#E77B77" d="M87.954,42.451c0.261,0.345,0.19,0.839-0.154,1.1c-0.349,0.259-0.841,0.19-1.104-0.156
		c-0.607-0.809-1.76-0.971-2.566-0.363c-0.81,0.609-0.972,1.763-0.362,2.571c0.261,0.345,0.192,0.839-0.156,1.1
		c-0.346,0.259-0.84,0.19-1.102-0.155c-0.965-1.283-0.88-3.036,0.104-4.222l-2.421-3.217c-0.261-0.348-0.19-0.841,0.154-1.101
		c0.348-0.262,0.842-0.191,1.101,0.157l2.422,3.215C85.281,40.762,86.987,41.165,87.954,42.451z"/>
	<path fill="#E77B77" d="M93.049,34.113c0.377,0.214,0.511,0.694,0.295,1.071c-0.214,0.379-0.695,0.511-1.071,0.297
		c-0.88-0.501-2.002-0.188-2.501,0.69c-0.499,0.88-0.189,2.001,0.691,2.499c0.378,0.214,0.511,0.693,0.297,1.072
		c-0.215,0.377-0.696,0.51-1.073,0.296c-1.398-0.795-2.017-2.433-1.586-3.914L84.6,34.14c-0.378-0.216-0.511-0.695-0.295-1.07
		c0.212-0.381,0.693-0.512,1.069-0.299l3.503,1.988C89.925,33.631,91.649,33.319,93.049,34.113z"/>
	<path fill="#E77B77" d="M93.625,30.168c0.433-0.021,0.77-0.387,0.752-0.82c-0.019-0.433-0.387-0.77-0.818-0.753
		c-1.012,0.043-1.867-0.746-1.908-1.756c-0.043-1.01,0.746-1.866,1.756-1.908c0.435-0.018,0.771-0.383,0.752-0.818
		c-0.018-0.434-0.384-0.77-0.817-0.754c-1.607,0.069-2.907,1.244-3.199,2.757l-4.021,0.17c-0.435,0.016-0.772,0.381-0.752,0.815
		c0.016,0.434,0.383,0.771,0.816,0.752l4.02-0.168C90.625,29.17,92.018,30.233,93.625,30.168z"/>
</g>
<path opacity="0.75" fill="none" stroke="#FFFFFF" stroke-linecap="round" stroke-linejoin="round" stroke-miterlimit="10" d="
	M75.278,36.809c0,0,3.986-19.952-0.822-20.048s1.615,20.538-1.858,20.597c-3.474,0.062,1.103-20.96-3.957-20.597
	c-5.059,0.363,3.828,21.148-1.816,20.597c-5.646-0.549,1.846-19.625-2.686-19.93c-4.527-0.304-0.592,14.723-0.975,18.608
	c-0.419,4.26-5.809,4.26-4.618-3.074c0.446-2.742,4.304-16.104-0.505-16.2c-4.81-0.096,0.799,21.513-2.676,21.573
	c-3.473,0.062,1.919-21.937-3.14-21.574c-5.058,0.363,3.828,21.148-1.817,20.597c-5.645-0.549,1.846-19.625-2.684-19.93
	c-4.531-0.304,2.025,20.422-2.86,19.823c-4.15-0.51,1.076-20.127-3.09-19.823c-4.165,0.306,2.724,19.382-2.468,19.931
	c-5.19,0.55,2.979-20.235-1.671-20.598c-4.651-0.363,0.307,21.636-2.887,21.574c-3.194-0.061,1.963-21.669-2.459-21.574
	c-4.422,0.096-1.794,13.458-1.385,16.201c1.095,7.333-2.942,7.333-3.327,3.074c-0.351-3.885,3.268-18.913-0.896-18.608
	c-4.165,0.306,2.723,19.382-2.468,19.931c-5.191,0.55,2.979-20.235-1.671-20.598c-4.65-0.363-0.443,20.659-3.637,20.598
	c-3.194-0.06,2.713-20.693-1.708-20.597c-4.422,0.096-1.149,22.163-1.149,22.163"/>
</svg>
